<svg width="40" height="41" viewBox="0 0 40 41" fill="none" xmlns="http://www.w3.org/2000/svg">
<rect y="0.5" width="40" height="40" rx="20" fill="#E0E8FF"/>
<path d="M20 13.8333C21.2934 13.8331 22.559 14.2091 23.6425 14.9156C24.7259 15.622 25.5805 16.6284 26.102 17.812C26.6235 18.9957 26.7894 20.3054 26.5795 21.5817C26.3697 22.858 25.7931 24.0457 24.92 25" stroke="#3A6BFF" stroke-width="1.33333" stroke-linecap="round" stroke-linejoin="round"/>
<path d="M20 16.5V20.5L22.6667 21.8333" stroke="#3A6BFF" stroke-width="1.33333" stroke-linecap="round" stroke-linejoin="round"/>
<path d="M13.6667 18.4167C13.4542 19.0624 13.3418 19.7369 13.3333 20.4167" stroke="#3A6BFF" stroke-width="1.33333" stroke-linecap="round" stroke-linejoin="round"/>
<path d="M13.8866 23.1667C14.261 24.0279 14.813 24.8003 15.5066 25.4333" stroke="#3A6BFF" stroke-width="1.33333" stroke-linecap="round" stroke-linejoin="round"/>
<path d="M15.0907 15.99C15.2767 15.7875 15.4751 15.5967 15.6847 15.4187" stroke="#3A6BFF" stroke-width="1.33333" stroke-linecap="round" stroke-linejoin="round"/>
<path d="M17.7627 26.78C19.4252 27.3723 21.2546 27.2812 22.85 26.5267" stroke="#3A6BFF" stroke-width="1.33333" stroke-linecap="round" stroke-linejoin="round"/>
</svg>
