<svg width="14" height="14" viewBox="0 0 14 14" fill="none" xmlns="http://www.w3.org/2000/svg">
<path d="M7.64746 4.47067L8.68579 6.02934" stroke="currentColor" stroke-width="1.16667" stroke-linecap="round" stroke-linejoin="round"/>
<path d="M8.26114 7.45966L6.32214 8.29032" stroke="currentColor" stroke-width="1.16667" stroke-linecap="round" stroke-linejoin="round"/>
<path d="M11.6667 2.33331L8.13165 3.21706" stroke="currentColor" stroke-width="1.16667" stroke-linecap="round" stroke-linejoin="round"/>
<path d="M1.75 1.75V11.0833C1.75 11.3928 1.87292 11.6895 2.09171 11.9083C2.3105 12.1271 2.60725 12.25 2.91667 12.25H12.25" stroke="currentColor" stroke-width="1.16667" stroke-linecap="round" stroke-linejoin="round"/>
<path d="M6.99998 4.66665C7.64431 4.66665 8.16665 4.14431 8.16665 3.49998C8.16665 2.85565 7.64431 2.33331 6.99998 2.33331C6.35565 2.33331 5.83331 2.85565 5.83331 3.49998C5.83331 4.14431 6.35565 4.66665 6.99998 4.66665Z" stroke="currentColor" stroke-width="1.16667" stroke-linecap="round" stroke-linejoin="round"/>
<path d="M9.33335 8.16668C9.97769 8.16668 10.5 7.64434 10.5 7.00001C10.5 6.35568 9.97769 5.83334 9.33335 5.83334C8.68902 5.83334 8.16669 6.35568 8.16669 7.00001C8.16669 7.64434 8.68902 8.16668 9.33335 8.16668Z" stroke="currentColor" stroke-width="1.16667" stroke-linecap="round" stroke-linejoin="round"/>
<path d="M5.24998 9.91668C5.89431 9.91668 6.41665 9.39434 6.41665 8.75001C6.41665 8.10568 5.89431 7.58334 5.24998 7.58334C4.60565 7.58334 4.08331 8.10568 4.08331 8.75001C4.08331 9.39434 4.60565 9.91668 5.24998 9.91668Z" stroke="currentColor" stroke-width="1.16667" stroke-linecap="round" stroke-linejoin="round"/>
</svg>
