<svg width="16" height="16" viewBox="0 0 16 16" fill="none" xmlns="http://www.w3.org/2000/svg">
<path d="M10.6668 3.99999L5.05743 9.72399C4.80733 9.97409 4.66683 10.3133 4.66683 10.667C4.66683 11.0207 4.80733 11.3599 5.05743 11.61C5.30753 11.8601 5.64674 12.0006 6.00043 12.0006C6.35413 12.0006 6.69333 11.8601 6.94343 11.61L12.5528 5.88599C13.0529 5.38588 13.3338 4.70759 13.3338 4.00032C13.3338 3.29306 13.0529 2.61477 12.5528 2.11466C12.0527 1.61455 11.3744 1.33359 10.6671 1.33359C9.95984 1.33359 9.28154 1.61455 8.78143 2.11466L3.19543 7.81532C2.81903 8.18564 2.51968 8.62682 2.31463 9.11341C2.10959 9.60001 2.00292 10.1224 2.00077 10.6504C1.99862 11.1784 2.10103 11.7017 2.30211 12.1899C2.50318 12.6781 2.79893 13.1217 3.17231 13.4951C3.54568 13.8685 3.98928 14.1642 4.47753 14.3653C4.96577 14.5664 5.489 14.6688 6.01702 14.6667C6.54504 14.6645 7.06742 14.5578 7.55401 14.3528C8.0406 14.1477 8.48178 13.8484 8.8521 13.472L14.4381 7.77132" stroke="#909399" stroke-width="1.33333" stroke-linecap="round" stroke-linejoin="round"/>
</svg>
