<svg width="31" height="31" viewBox="0 0 31 31" fill="none" stroke="#08090a" xmlns="http://www.w3.org/2000/svg">
<path d="M7.75004 18.0833L9.62296 14.3375C9.83862 13.9095 10.1691 13.55 10.5774 13.299C10.9857 13.0481 11.4558 12.9157 11.935 12.9167H25.8334M25.8334 12.9167C26.228 12.916 26.6176 13.0057 26.9721 13.179C27.3267 13.3523 27.6369 13.6045 27.8788 13.9162C28.1208 14.228 28.2881 14.5911 28.3679 14.9776C28.4477 15.3641 28.4379 15.7637 28.3392 16.1458L26.3371 23.8958C26.1938 24.4511 25.8697 24.9429 25.416 25.2937C24.9623 25.6445 24.4048 25.8343 23.8313 25.8333H5.16671C4.48156 25.8333 3.82448 25.5612 3.34001 25.0767C2.85555 24.5922 2.58337 23.9351 2.58337 23.25V6.45833C2.58337 5.0375 3.74587 3.875 5.16671 3.875H10.243C10.6685 3.8772 11.0868 3.98447 11.4609 4.18727C11.8349 4.39008 12.1531 4.68213 12.3871 5.0375L13.4463 6.5875C13.6803 6.94287 13.9985 7.23492 14.3725 7.43773C14.7466 7.64053 15.165 7.7478 15.5905 7.75H23.25C23.9352 7.75 24.5923 8.02217 25.0767 8.50664C25.5612 8.99111 25.8334 9.64819 25.8334 10.3333V12.9167Z"
 stroke="strokeColor" stroke-width="2.66667" stroke-linecap="round" stroke-linejoin="round"/>
<path d="M18.0833 20.6667C18.7967 20.6667 19.375 20.0884 19.375 19.375C19.375 18.6616 18.7967 18.0833 18.0833 18.0833C17.3699 18.0833 16.7916 18.6616 16.7916 19.375C16.7916 20.0884 17.3699 20.6667 18.0833 20.6667Z"
 stroke="strokeColor" stroke-width="2.66667" stroke-linecap="round" stroke-linejoin="round"/>
</svg>
