<svg width="22" height="22" viewBox="0 0 22 22" fill="none" xmlns="http://www.w3.org/2000/svg">
<path d="M12.0176 7.02533L13.6492 9.47466" stroke="#909399" stroke-width="1.83333" stroke-linecap="round" stroke-linejoin="round"/>
<path d="M12.9816 11.7223L9.93457 13.0277" stroke="#909399" stroke-width="1.83333" stroke-linecap="round" stroke-linejoin="round"/>
<path d="M18.3333 3.66666L12.7783 5.05541" stroke="#909399" stroke-width="1.83333" stroke-linecap="round" stroke-linejoin="round"/>
<path d="M2.75 2.75V17.4167C2.75 17.9029 2.94315 18.3692 3.28697 18.713C3.63079 19.0568 4.0971 19.25 4.58333 19.25H19.25" stroke="#909399" stroke-width="1.83333" stroke-linecap="round" stroke-linejoin="round"/>
<path d="M10.9998 7.33332C12.0124 7.33332 12.8332 6.51251 12.8332 5.49999C12.8332 4.48747 12.0124 3.66666 10.9998 3.66666C9.98732 3.66666 9.1665 4.48747 9.1665 5.49999C9.1665 6.51251 9.98732 7.33332 10.9998 7.33332Z" stroke="#909399" stroke-width="1.83333" stroke-linecap="round" stroke-linejoin="round"/>
<path d="M14.6668 12.8333C15.6794 12.8333 16.5002 12.0125 16.5002 11C16.5002 9.98748 15.6794 9.16667 14.6668 9.16667C13.6543 9.16667 12.8335 9.98748 12.8335 11C12.8335 12.0125 13.6543 12.8333 14.6668 12.8333Z" stroke="#909399" stroke-width="1.83333" stroke-linecap="round" stroke-linejoin="round"/>
<path d="M8.24984 15.5833C9.26236 15.5833 10.0832 14.7625 10.0832 13.75C10.0832 12.7375 9.26236 11.9167 8.24984 11.9167C7.23732 11.9167 6.4165 12.7375 6.4165 13.75C6.4165 14.7625 7.23732 15.5833 8.24984 15.5833Z" stroke="#909399" stroke-width="1.83333" stroke-linecap="round" stroke-linejoin="round"/>
</svg>
