<svg width="14" height="14" viewBox="0 0 14 14" fill="none" xmlns="http://www.w3.org/2000/svg">
<path d="M5.9895 12.25C6.0919 12.4273 6.23918 12.5746 6.41653 12.677C6.59388 12.7794 6.79505 12.8333 6.99984 12.8333C7.20462 12.8333 7.40579 12.7794 7.58314 12.677C7.76049 12.5746 7.90777 12.4273 8.01017 12.25" stroke="#08090A" stroke-width="1.16667" stroke-linecap="round" stroke-linejoin="round"/>
<path d="M1.9029 8.94016C1.82669 9.02368 1.7764 9.12755 1.75814 9.23913C1.73989 9.3507 1.75445 9.46518 1.80006 9.56864C1.84567 9.67209 1.92036 9.76006 2.01504 9.82185C2.10973 9.88364 2.22033 9.91657 2.3334 9.91666H11.6667C11.7798 9.9167 11.8904 9.88389 11.9852 9.82222C12.0799 9.76055 12.1547 9.67268 12.2004 9.56929C12.2461 9.4659 12.2608 9.35146 12.2427 9.23987C12.2246 9.12828 12.1745 9.02436 12.0984 8.94074C11.3226 8.14099 10.5001 7.29107 10.5001 4.66666C10.5001 3.7384 10.1313 2.84816 9.47494 2.19178C8.81856 1.53541 7.92832 1.16666 7.00006 1.16666C6.0718 1.16666 5.18157 1.53541 4.52519 2.19178C3.86881 2.84816 3.50006 3.7384 3.50006 4.66666C3.50006 7.29107 2.67698 8.14099 1.9029 8.94016Z" stroke="#08090A" stroke-width="1.16667" stroke-linecap="round" stroke-linejoin="round"/>
</svg>
