<svg width="14" height="14" viewBox="0 0 14 14" fill="none" xmlns="http://www.w3.org/2000/svg">
<path d="M10.5001 12.25C10.5001 11.0123 10.0084 9.82535 9.13325 8.95018C8.25808 8.07501 7.07109 7.58334 5.83342 7.58334C4.59574 7.58334 3.40875 8.07501 2.53358 8.95018C1.65841 9.82535 1.16675 11.0123 1.16675 12.25" stroke="currentColor" stroke-width="1.16667" stroke-linecap="round" stroke-linejoin="round"/>
<path d="M5.83341 7.58333C7.44425 7.58333 8.75008 6.2775 8.75008 4.66667C8.75008 3.05584 7.44425 1.75 5.83341 1.75C4.22258 1.75 2.91675 3.05584 2.91675 4.66667C2.91675 6.2775 4.22258 7.58333 5.83341 7.58333Z" stroke="currentColor" stroke-width="1.16667" stroke-linecap="round" stroke-linejoin="round"/>
<path d="M12.8334 11.6667C12.8334 9.70083 11.6667 7.87499 10.5 6.99999C10.8835 6.71227 11.1902 6.33446 11.3929 5.89998C11.5956 5.46551 11.688 4.98777 11.6621 4.50904C11.6361 4.03032 11.4925 3.56538 11.2441 3.15536C10.9956 2.74534 10.6499 2.40289 10.2375 2.15833" stroke="currentColor" stroke-width="1.16667" stroke-linecap="round" stroke-linejoin="round"/>
</svg>
