<svg width="22" height="22" viewBox="0 0 22 22" fill="none" xmlns="http://www.w3.org/2000/svg">
<path d="M14.6666 19.25V17.4167C14.6666 16.4442 14.2803 15.5116 13.5926 14.8239C12.905 14.1363 11.9724 13.75 10.9999 13.75H5.49992C4.52746 13.75 3.59483 14.1363 2.90719 14.8239C2.21956 15.5116 1.83325 16.4442 1.83325 17.4167V19.25" stroke="#909399" stroke-width="1.83333" stroke-linecap="round" stroke-linejoin="round"/>
<path d="M14.6667 2.86734C15.453 3.07118 16.1494 3.53033 16.6465 4.17273C17.1435 4.81513 17.4133 5.60441 17.4133 6.41667C17.4133 7.22894 17.1435 8.01822 16.6465 8.66062C16.1494 9.30301 15.453 9.76217 14.6667 9.96601" stroke="#909399" stroke-width="1.83333" stroke-linecap="round" stroke-linejoin="round"/>
<path d="M20.1667 19.25V17.4167C20.1661 16.6043 19.8957 15.815 19.398 15.173C18.9003 14.5309 18.2034 14.0723 17.4167 13.8692" stroke="#909399" stroke-width="1.83333" stroke-linecap="round" stroke-linejoin="round"/>
<path d="M8.24992 10.0833C10.275 10.0833 11.9166 8.44171 11.9166 6.41667C11.9166 4.39162 10.275 2.75 8.24992 2.75C6.22487 2.75 4.58325 4.39162 4.58325 6.41667C4.58325 8.44171 6.22487 10.0833 8.24992 10.0833Z" stroke="#909399" stroke-width="1.83333" stroke-linecap="round" stroke-linejoin="round"/>
</svg>
