<svg width="16" height="16" viewBox="0 0 16 16" fill="none" xmlns="http://www.w3.org/2000/svg">
<path d="M13.3334 4.66667H7.33337" stroke="#08090A" stroke-width="1.33333" stroke-linecap="round" stroke-linejoin="round"/>
<path d="M9.33337 11.3333H3.33337" stroke="#08090A" stroke-width="1.33333" stroke-linecap="round" stroke-linejoin="round"/>
<path d="M11.3334 13.3333C12.4379 13.3333 13.3334 12.4379 13.3334 11.3333C13.3334 10.2288 12.4379 9.33333 11.3334 9.33333C10.2288 9.33333 9.33337 10.2288 9.33337 11.3333C9.33337 12.4379 10.2288 13.3333 11.3334 13.3333Z" stroke="#08090A" stroke-width="1.33333" stroke-linecap="round" stroke-linejoin="round"/>
<path d="M4.66663 6.66667C5.7712 6.66667 6.66663 5.77124 6.66663 4.66667C6.66663 3.5621 5.7712 2.66667 4.66663 2.66667C3.56206 2.66667 2.66663 3.5621 2.66663 4.66667C2.66663 5.77124 3.56206 6.66667 4.66663 6.66667Z" stroke="#08090A" stroke-width="1.33333" stroke-linecap="round" stroke-linejoin="round"/>
</svg>
