<svg width="16" height="16" viewBox="0 0 16 16" fill="none" xmlns="http://www.w3.org/2000/svg">
<g clip-path="url(#clip0_1260_6574)">
<path d="M8 1.33334C9.29343 1.33311 10.559 1.70913 11.6425 2.41558C12.7259 3.12203 13.5805 4.1284 14.102 5.31204C14.6235 6.49567 14.7894 7.80545 14.5795 9.08173C14.3697 10.358 13.7931 11.5457 12.92 12.5" stroke="#909399" stroke-width="1.33333" stroke-linecap="round" stroke-linejoin="round"/>
<path d="M8 4V8L10.6667 9.33333" stroke="#909399" stroke-width="1.33333" stroke-linecap="round" stroke-linejoin="round"/>
<path d="M1.66659 5.91666C1.45415 6.56243 1.34174 7.23689 1.33325 7.91666" stroke="#909399" stroke-width="1.33333" stroke-linecap="round" stroke-linejoin="round"/>
<path d="M1.88672 10.6667C2.26105 11.5279 2.81311 12.3003 3.50672 12.9333" stroke="#909399" stroke-width="1.33333" stroke-linecap="round" stroke-linejoin="round"/>
<path d="M3.09058 3.49C3.2766 3.28749 3.47498 3.09668 3.68458 2.91867" stroke="#909399" stroke-width="1.33333" stroke-linecap="round" stroke-linejoin="round"/>
<path d="M5.7627 14.28C7.42516 14.8723 9.25463 14.7812 10.85 14.0267" stroke="#909399" stroke-width="1.33333" stroke-linecap="round" stroke-linejoin="round"/>
</g>
<defs>
<clipPath id="clip0_1260_6574">
<rect width="16" height="16" fill="white"/>
</clipPath>
</defs>
</svg>
