<svg width="14" height="14" viewBox="0 0 14 14" fill="none" xmlns="http://www.w3.org/2000/svg">
    <g clip-path="url(#clip0_317_2080)">
        <path d="M2.24582 5.02831C2.16068 4.64478 2.17375 4.24597 2.28383 3.86884C2.39391 3.49171 2.59743 3.14849 2.87551 2.87098C3.1536 2.59347 3.49725 2.39068 3.87461 2.28139C4.25197 2.1721 4.65081 2.15986 5.03416 2.24581C5.24515 1.91582 5.53583 1.64425 5.87938 1.45614C6.22293 1.26803 6.60831 1.16943 6.99999 1.16943C7.39167 1.16943 7.77705 1.26803 8.1206 1.45614C8.46415 1.64425 8.75483 1.91582 8.96582 2.24581C9.34975 2.15949 9.74928 2.17167 10.1272 2.28123C10.5052 2.39078 10.8493 2.59414 11.1276 2.8724C11.4058 3.15066 11.6092 3.49477 11.7187 3.87273C11.8283 4.25069 11.8405 4.65021 11.7542 5.03414C12.0841 5.24514 12.3557 5.53581 12.5438 5.87936C12.7319 6.22292 12.8305 6.6083 12.8305 6.99998C12.8305 7.39166 12.7319 7.77704 12.5438 8.12059C12.3557 8.46414 12.0841 8.75481 11.7542 8.96581C11.8401 9.34916 11.8279 9.748 11.7186 10.1254C11.6093 10.5027 11.4065 10.8464 11.129 11.1245C10.8515 11.4025 10.5083 11.6061 10.1311 11.7161C9.754 11.8262 9.35518 11.8393 8.97166 11.7541C8.76093 12.0854 8.47004 12.3581 8.1259 12.5471C7.78176 12.736 7.39551 12.8351 7.00291 12.8351C6.61031 12.8351 6.22406 12.736 5.87992 12.5471C5.53578 12.3581 5.24488 12.0854 5.03416 11.7541C4.65081 11.8401 4.25197 11.8279 3.87461 11.7186C3.49725 11.6093 3.1536 11.4065 2.87551 11.129C2.59743 10.8515 2.39391 10.5082 2.28383 10.1311C2.17375 9.75398 2.16068 9.35517 2.24582 8.97164C1.9133 8.7612 1.6394 8.47008 1.4496 8.12535C1.25981 7.78063 1.16028 7.3935 1.16028 6.99998C1.16028 6.60645 1.25981 6.21933 1.4496 5.8746C1.6394 5.52987 1.9133 5.23875 2.24582 5.02831Z" stroke="strokeColor" stroke-width="1.16667" stroke-linecap="round" stroke-linejoin="round"/>
        <path d="M5.25 7.00001L6.41667 8.16668L8.75 5.83334" stroke="strokeColor" stroke-width="1.16667" stroke-linecap="round" stroke-linejoin="round"/>
    </g>
    <defs>
        <clipPath id="clip0_317_2080">
            <rect width="14" height="14" fill="white"/>
        </clipPath>
    </defs>
</svg>
