<svg width="40" height="41" viewBox="0 0 40 41" fill="none" xmlns="http://www.w3.org/2000/svg">
<rect y="0.5" width="40" height="40" rx="20" fill="#FFF1E0"/>
<path d="M26.4867 24.5L21.1533 15.1667C21.0371 14.9615 20.8684 14.7908 20.6646 14.672C20.4608 14.5533 20.2292 14.4907 19.9933 14.4907C19.7575 14.4907 19.5259 14.5533 19.3221 14.672C19.1183 14.7908 18.9496 14.9615 18.8333 15.1667L13.5 24.5C13.3825 24.7036 13.3208 24.9346 13.3214 25.1697C13.3219 25.4047 13.3845 25.6355 13.503 25.8386C13.6214 26.0416 13.7914 26.2097 13.9958 26.3259C14.2002 26.4421 14.4316 26.5021 14.6667 26.5H25.3333C25.5673 26.4998 25.797 26.438 25.9995 26.3209C26.202 26.2037 26.3702 26.0354 26.487 25.8327C26.6039 25.6301 26.6654 25.4003 26.6653 25.1663C26.6653 24.9324 26.6036 24.7026 26.4867 24.5Z" stroke="#FFA63A" stroke-width="1.33333" stroke-linecap="round" stroke-linejoin="round"/>
<path d="M20 18.5V21.1667" stroke="#FFA63A" stroke-width="1.33333" stroke-linecap="round" stroke-linejoin="round"/>
<path d="M20 23.8333H20.0067" stroke="#FFA63A" stroke-width="1.33333" stroke-linecap="round" stroke-linejoin="round"/>
</svg>
